# xmcd
#
# Track frame offsets:
#	150
#	13992
#	33552
#	50354
#	55939
#	68550
#
# Disc length: 1169 seconds
#
# Revision: 0
# Processed by: cddbd v1.5.2PL0 Copyright (c) Steve Scherf et al.
# Submitted via: EZCDAudioConverter 1.3.4.1
#
DISCID=4c048f06
DTITLE=Bio Terror - Destruyendo Lo Santo... Invocando Lo Blasfemo...
DYEAR=2013
DGENRE=Black/Thrash Metal
TTITLE0=Intro
TTITLE1=Posesión
TTITLE2=Horror Y Desolación
TTITLE3=Ejército De Odio
TTITLE4=Trono Oscuro
TTITLE5=Anticristo
EXTD=
EXTT0=
EXTT1=
EXTT2=
EXTT3=
EXTT4=
EXTT5=
PLAYORDER=
